<svg xmlns="http://www.w3.org/2000/svg" width="1000" height="1000" style="enable-background:new" viewBox="0 0 264.583 264.583"><g style="display:inline"><path d="M112.544 94.758a66.657 67.5 0 0 0-66.658 67.5 66.657 67.5 0 0 0 66.658 67.5 66.657 67.5 0 0 0 66.657-67.5 66.657 67.5 0 0 0-66.657-67.5zm0 13.702a53.995 53.798 0 0 1 53.995 53.798 53.995 53.798 0 0 1-53.995 53.799 53.995 53.798 0 0 1-53.995-53.8 53.995 53.798 0 0 1 53.995-53.797z" style="opacity:1;fill:#4ee1f8;fill-opacity:1;stroke-width:.302306px;display:inline" transform="translate(-85.497 -181.7) scale(1.93514)"/><path d="M162.254 141.393a53.995 53.798 0 0 1 4.285 20.865 53.995 53.798 0 0 1-53.995 53.799 53.995 53.798 0 0 1-33.09-11.369L102 228.872a66.657 67.5 0 0 0 10.544.886 66.657 67.5 0 0 0 66.657-67.5 66.657 67.5 0 0 0-.01-.207z" style="opacity:1;fill:#30b9e0;fill-opacity:1;stroke-width:.302306px;display:inline" transform="translate(-85.497 -181.7) scale(1.93514)"/><path d="M112.544 101.014a47.74 48.034 0 0 0-47.74 48.034 47.74 48.034 0 0 0 11.685 31.44l8.37-12.772a33.24 33.802 0 0 1-5.555-18.668 33.24 33.802 0 0 1 33.24-33.802 33.24 33.802 0 0 1 33.24 33.802 33.24 33.802 0 0 1-33.24 33.802 33.24 33.802 0 0 1-22.171-8.666l-4.528 14.009-.276.424a47.74 48.034 0 0 0 26.975 8.466 47.74 48.034 0 0 0 47.74-48.035 47.74 48.034 0 0 0-47.74-48.034z" style="fill:#1c4abe;fill-opacity:1;stroke-width:.215816px;display:inline" transform="translate(-85.497 -156.138) scale(1.93514)"/><path d="M140.402 130.533a33.24 33.802 0 0 1 5.447 18.515 33.24 33.802 0 0 1-33.24 33.802 33.24 33.802 0 0 1-22.171-8.666l-4.528 14.009-.276.424a47.74 48.034 0 0 0 26.975 8.466 47.74 48.034 0 0 0 47.674-46.186z" style="fill:#153092;fill-opacity:1;stroke:none;stroke-width:.264583px;stroke-linecap:butt;stroke-linejoin:miter;stroke-opacity:1;display:inline" transform="translate(-85.497 -156.138) scale(1.93514)"/><path d="M99.589 125.366v9.486a14.81 15.079 0 0 1 12.78 14.92 14.81 15.079 0 0 1-12.78 14.92v9.479a24.766 24.5 0 0 0 22.736-24.4 24.766 24.5 0 0 0-22.736-24.405z" style="opacity:1;fill:#153092;fill-opacity:1;stroke:none;stroke-width:.566739px;display:inline" transform="translate(-55.96 -157.532) scale(1.93514)"/><path d="M94.972 125.366v9.486a14.81 15.079 0 0 0-12.78 14.92 14.81 15.079 0 0 0 12.78 14.92v9.479a24.766 24.5 0 0 1-22.736-24.4 24.766 24.5 0 0 1 22.736-24.405Z" style="opacity:1;fill:#1c4abe;fill-opacity:1;stroke:none;stroke-width:.566739px;display:inline" transform="translate(-55.96 -157.532) scale(1.93514)"/></g></svg>